# xmcd CD database file
#
# Track frame offsets:
#	150
#	16043
#	43995
#	80208
#	109836
#
# Disc length: 1755 seconds
#
# Revision: 2
# Processed by: cddbd v1.4b41PL1 Copyright (c) Steve Scherf et al.
# Submitted via: Feurio! 1.50.2ß - http://www.feurio.com
#
DISCID=3a06d905
DTITLE=Grateful Dead - CD  4
DYEAR=1900
DGENRE=
TTITLE0=Me an My Uncle
TTITLE1=Ramble on Rose
TTITLE2=Sugar Magnolia
TTITLE3=Casey Jones
TTITLE4=One More Saturday Night
EXTD=
EXTT0=
EXTT1=
EXTT2=
EXTT3=
EXTT4=
PLAYORDER=
